# Blender 3.4.1
# www.blender.org
mtllib ejemplo.mtl
o Cube
v 1.000000 1.000000 -1.000000
v 0.352310 -0.352310 -0.352310
v 0.333333 0.333333 0.333333
v 1.000000 -1.000000 1.000000
v -1.000000 1.000000 -1.000000
v -1.000000 -1.000000 -1.000000
v -1.000000 1.000000 1.000000
v -0.351731 -0.351731 0.351731
vn 0.2357 0.9428 0.2357
vn 0.0134 0.0134 0.9998
vn -0.9470 -0.2271 0.2271
vn -0.0004 -1.0000 0.0004
vn 0.9998 0.0138 0.0138
vn 0.2268 -0.2268 -0.9472
vt 0.625000 0.500000
vt 0.375000 0.500000
vt 0.625000 0.750000
vt 0.375000 0.750000
vt 0.875000 0.500000
vt 0.625000 0.250000
vt 0.125000 0.500000
vt 0.375000 0.250000
vt 0.875000 0.750000
vt 0.625000 1.000000
vt 0.625000 0.000000
vt 0.375000 1.000000
vt 0.375000 0.000000
vt 0.125000 0.750000
s 0
usemtl Material
f 1/1/1 5/5/1 7/9/1 3/3/1
f 4/4/2 3/3/2 7/10/2 8/12/2
f 8/13/3 7/11/3 5/6/3 6/8/3
f 6/7/4 2/2/4 4/4/4 8/14/4
f 2/2/5 1/1/5 3/3/5 4/4/5
f 6/8/6 5/6/6 1/1/6 2/2/6
